<?xml version="1.0" encoding="UTF-8"?>
<svg width="1024px" height="1024px" viewBox="0 0 1024 1024" version="1.1" xmlns="http://www.w3.org/2000/svg" xmlns:xlink="http://www.w3.org/1999/xlink">
    <!-- Generator: Sketch 52.6 (67491) - http://www.bohemiancoding.com/sketch -->
    <title>logo</title>
    <desc>Created with Sketch.</desc>
    <g id="logo" stroke="none" stroke-width="1" fill="none" fill-rule="evenodd">
        <g fill="#1B1F23" id="Group-4">
            <g transform="translate(3.200000, 3.200000)">
                <g fill-rule="nonzero">
                    <path d="M487.304463,402.36324 C501.69124,418.552595 505.660298,498.991603 469.701818,507.902942 C418.163306,520.681785 388.467306,456.432132 417.207008,415.793719 C428.014017,400.518347 477.986909,391.877818 487.304463,402.36324 Z M1011.76172,479.053223 C996.130909,200.601388 757.733554,-12.4413884 479.307107,3.18942149 C200.863736,18.8286942 -12.1875041,257.22605 3.44330579,535.660959 C19.0741157,814.112793 257.471471,1027.15557 535.90638,1011.53322 C544.902347,1011.02545 553.822149,1010.28073 562.665785,1009.31597 C562.665785,1009.31597 637.485488,742.068893 528.382942,682.202975 C496.943603,664.947306 453.817124,683.531636 410.732959,650.120463 L334.305322,672.013752 L402.701752,643.257124 C400.46757,641.200661 398.309554,639.05957 396.278479,636.808463 L311.565752,638.467174 L389.000463,627.660165 C386.266975,623.775736 383.846612,619.628959 381.773223,615.228298 L320.578645,588.621223 L377.973421,605.817653 C377.135603,603.261884 376.382413,600.655339 375.781554,597.930314 C373.225785,586.513983 339.713058,573.989025 343.60595,545.003901 C346.322512,524.769322 369.603702,502.723702 369.976066,493.177653 C371.304727,459.233322 379.818314,444.753455 398.081058,410.842975 C368.579702,492.094413 432.854744,549.125289 494.413223,521.976595 C525.167074,508.402248 536.151802,458.95405 526.664992,400.814545 C526.047207,397.234777 709.952529,345.984 724.220826,352.584992 C741.501884,360.540033 772.492694,392.080926 780.91319,392.859504 C789.31676,393.638083 822.490975,390.472992 823.278017,382.010182 C824.073521,373.547372 749.177653,324.141488 731.422678,322.829752 C715.681851,321.67881 471.66519,369.950678 461.196694,372.057917 C453.267041,373.648926 446.242909,375.73924 439.946579,378.201917 C466.680595,336.522579 559.339901,288.386116 649.951207,284.96714 C627.660165,200.669091 696.395107,53.6616198 696.395107,53.6616198 C696.395107,53.6616198 795.528463,190.285223 824.175074,297.348231 C852.80476,404.41124 825.596826,586.615537 957.718215,736.111074 C996.875636,659.251835 1016.94096,571.390942 1011.76172,479.053223 Z" id="Fill-3" transform="translate(507.600399, 507.360898) scale(-1, 1) translate(-507.600399, -507.360898) "></path>
                </g>
            </g>
        </g>
    </g>
</svg>