<?xml version="1.0" encoding="UTF-8"?>
<svg width="320px" height="320px" viewBox="0 0 320 320" version="1.1" xmlns="http://www.w3.org/2000/svg" xmlns:xlink="http://www.w3.org/1999/xlink">
    <!-- Generator: Sketch 52.6 (67491) - http://www.bohemiancoding.com/sketch -->
    <title>logo</title>
    <desc>Created with Sketch.</desc>
    <g id="logo" stroke="none" stroke-width="1" fill="none" fill-rule="evenodd">
        <g fill="#24292E" id="Group-4">
            <g transform="translate(1.000000, 1.000000)">
                <g fill-rule="nonzero">
                    <path d="M152.282645,125.738512 C156.778512,130.797686 158.018843,155.934876 146.781818,158.719669 C130.676033,162.713058 121.396033,142.635041 130.37719,129.935537 C133.75438,125.161983 149.370909,122.461818 152.282645,125.738512 Z M316.175537,149.704132 C311.290909,62.6879339 236.791736,-3.88793388 149.783471,0.996694215 C62.7699174,5.88396694 -3.80859504,80.3831405 1.07603306,167.39405 C5.96066116,254.410248 80.4598347,320.986116 167.470744,316.104132 C170.281983,315.945455 173.069421,315.712727 175.833058,315.41124 C175.833058,315.41124 199.214215,231.896529 165.119669,213.18843 C155.294876,207.796033 141.817851,213.603636 128.35405,203.162645 L104.470413,210.004298 L125.844298,201.017851 C125.146116,200.375207 124.471736,199.706116 123.837025,199.002645 L97.3642975,199.520992 L121.562645,196.143802 C120.70843,194.929917 119.952066,193.63405 119.304132,192.258843 L100.180826,183.944132 L118.116694,189.318017 C117.854876,188.519339 117.619504,187.704793 117.431736,186.853223 C116.633058,183.28562 106.160331,179.37157 107.37686,170.313719 C108.225785,163.990413 115.501157,157.101157 115.617521,154.118017 C116.032727,143.510413 118.693223,138.985455 124.400331,128.38843 C115.181157,153.779504 135.267107,171.601653 154.504132,163.117686 C164.114711,158.875702 167.547438,143.42314 164.58281,125.254545 C164.389752,124.135868 221.860165,108.12 226.319008,110.18281 C231.719339,112.66876 241.403967,122.525289 244.035372,122.768595 C246.661488,123.011901 257.02843,122.02281 257.27438,119.378182 C257.522975,116.733554 234.118017,101.294215 228.569587,100.884298 C223.650579,100.524628 147.395372,115.609587 144.123967,116.268099 C141.64595,116.765289 139.450909,117.418512 137.483306,118.188099 C145.837686,105.163306 174.793719,90.1206612 203.109752,89.0522314 C196.143802,62.7090909 217.623471,16.7692562 217.623471,16.7692562 C217.623471,16.7692562 248.602645,59.4641322 257.554711,92.9213223 C266.501488,126.378512 257.999008,183.317355 299.286942,230.034711 C311.523636,206.016198 317.79405,178.559669 316.175537,149.704132 Z" id="Fill-3" transform="translate(158.625125, 158.550281) scale(-1, 1) translate(-158.625125, -158.550281) "></path>
                </g>
            </g>
        </g>
    </g>
</svg>